<svg width="929" height="533" viewBox="0 0 929 533" fill="none" xmlns="http://www.w3.org/2000/svg">
<rect x="243" y="208" width="444" height="117" rx="14" stroke="#005F40" stroke-width="8"/>
<path d="M287.733 288.264C284.653 288.264 281.793 287.802 279.153 286.878C276.557 285.91 274.533 284.7 273.081 283.248C272.421 282.544 272.135 281.752 272.223 280.872C272.355 279.948 272.795 279.2 273.543 278.628C274.423 277.924 275.281 277.638 276.117 277.77C276.997 277.858 277.745 278.232 278.361 278.892C279.109 279.728 280.297 280.52 281.925 281.268C283.597 281.972 285.445 282.324 287.469 282.324C290.021 282.324 291.957 281.906 293.277 281.07C294.641 280.234 295.345 279.156 295.389 277.836C295.433 276.516 294.795 275.372 293.475 274.404C292.199 273.436 289.845 272.644 286.413 272.028C281.969 271.148 278.735 269.828 276.711 268.068C274.731 266.308 273.741 264.152 273.741 261.6C273.741 259.356 274.401 257.508 275.721 256.056C277.041 254.56 278.735 253.46 280.803 252.756C282.871 252.008 285.027 251.634 287.271 251.634C290.175 251.634 292.749 252.096 294.993 253.02C297.237 253.944 299.019 255.22 300.339 256.848C300.955 257.552 301.241 258.3 301.197 259.092C301.153 259.84 300.779 260.478 300.075 261.006C299.371 261.49 298.535 261.644 297.567 261.468C296.599 261.292 295.785 260.896 295.125 260.28C294.025 259.224 292.837 258.498 291.561 258.102C290.285 257.706 288.811 257.508 287.139 257.508C285.203 257.508 283.553 257.838 282.189 258.498C280.869 259.158 280.209 260.126 280.209 261.402C280.209 262.194 280.407 262.92 280.803 263.58C281.243 264.196 282.079 264.768 283.311 265.296C284.543 265.78 286.347 266.264 288.723 266.748C292.023 267.408 294.619 268.244 296.511 269.256C298.447 270.268 299.833 271.456 300.669 272.82C301.505 274.14 301.923 275.68 301.923 277.44C301.923 279.464 301.373 281.29 300.273 282.918C299.217 284.546 297.633 285.844 295.521 286.812C293.453 287.78 290.857 288.264 287.733 288.264ZM340.927 288.066C339.959 288.066 339.145 287.758 338.485 287.142C337.869 286.482 337.561 285.668 337.561 284.7V268.464C337.561 265.956 337.099 263.91 336.175 262.326C335.251 260.742 333.997 259.576 332.413 258.828C330.873 258.036 329.091 257.64 327.067 257.64C325.219 257.64 323.547 258.014 322.051 258.762C320.555 259.51 319.367 260.522 318.487 261.798C317.607 263.03 317.167 264.46 317.167 266.088H313.009C313.009 263.316 313.669 260.852 314.989 258.696C316.353 256.496 318.201 254.758 320.533 253.482C322.865 252.206 325.483 251.568 328.387 251.568C331.423 251.568 334.129 252.228 336.505 253.548C338.925 254.824 340.817 256.716 342.181 259.224C343.589 261.732 344.293 264.812 344.293 268.464V284.7C344.293 285.668 343.963 286.482 343.303 287.142C342.687 287.758 341.895 288.066 340.927 288.066ZM313.801 288.066C312.833 288.066 312.019 287.758 311.359 287.142C310.743 286.482 310.435 285.668 310.435 284.7V255.264C310.435 254.252 310.743 253.438 311.359 252.822C312.019 252.206 312.833 251.898 313.801 251.898C314.813 251.898 315.627 252.206 316.243 252.822C316.859 253.438 317.167 254.252 317.167 255.264V284.7C317.167 285.668 316.859 286.482 316.243 287.142C315.627 287.758 314.813 288.066 313.801 288.066ZM370.471 288.264C367.259 288.264 364.377 287.472 361.825 285.888C359.273 284.26 357.249 282.082 355.753 279.354C354.301 276.582 353.575 273.458 353.575 269.982C353.575 266.506 354.367 263.382 355.951 260.61C357.579 257.838 359.757 255.66 362.485 254.076C365.257 252.448 368.359 251.634 371.791 251.634C375.223 251.634 378.303 252.448 381.031 254.076C383.759 255.66 385.915 257.838 387.499 260.61C389.127 263.382 389.941 266.506 389.941 269.982H387.367C387.367 273.458 386.619 276.582 385.123 279.354C383.671 282.082 381.669 284.26 379.117 285.888C376.565 287.472 373.683 288.264 370.471 288.264ZM371.791 282.324C374.035 282.324 376.037 281.796 377.797 280.74C379.557 279.64 380.943 278.166 381.955 276.318C382.967 274.426 383.473 272.314 383.473 269.982C383.473 267.606 382.967 265.494 381.955 263.646C380.943 261.754 379.557 260.28 377.797 259.224C376.037 258.124 374.035 257.574 371.791 257.574C369.591 257.574 367.589 258.124 365.785 259.224C364.025 260.28 362.617 261.754 361.561 263.646C360.549 265.494 360.043 267.606 360.043 269.982C360.043 272.314 360.549 274.426 361.561 276.318C362.617 278.166 364.025 279.64 365.785 280.74C367.589 281.796 369.591 282.324 371.791 282.324ZM386.575 288.066C385.607 288.066 384.793 287.758 384.133 287.142C383.517 286.482 383.209 285.668 383.209 284.7V274.602L384.463 267.606L389.941 269.982V284.7C389.941 285.668 389.611 286.482 388.951 287.142C388.335 287.758 387.543 288.066 386.575 288.066ZM403.327 303.444C402.359 303.444 401.545 303.114 400.885 302.454C400.269 301.838 399.961 301.046 399.961 300.078V269.982C400.005 266.506 400.819 263.382 402.403 260.61C403.987 257.838 406.143 255.66 408.871 254.076C411.599 252.448 414.679 251.634 418.111 251.634C421.587 251.634 424.689 252.448 427.417 254.076C430.145 255.66 432.301 257.838 433.885 260.61C435.513 263.382 436.327 266.506 436.327 269.982C436.327 273.458 435.579 276.582 434.083 279.354C432.631 282.082 430.629 284.26 428.077 285.888C425.525 287.472 422.643 288.264 419.431 288.264C416.835 288.264 414.437 287.736 412.237 286.68C410.081 285.58 408.233 284.106 406.693 282.258V300.078C406.693 301.046 406.385 301.838 405.769 302.454C405.153 303.114 404.339 303.444 403.327 303.444ZM418.111 282.324C420.355 282.324 422.357 281.796 424.117 280.74C425.877 279.64 427.263 278.166 428.275 276.318C429.331 274.426 429.859 272.314 429.859 269.982C429.859 267.606 429.331 265.494 428.275 263.646C427.263 261.754 425.877 260.28 424.117 259.224C422.357 258.124 420.355 257.574 418.111 257.574C415.911 257.574 413.909 258.124 412.105 259.224C410.345 260.28 408.959 261.754 407.947 263.646C406.935 265.494 406.429 267.606 406.429 269.982C406.429 272.314 406.935 274.426 407.947 276.318C408.959 278.166 410.345 279.64 412.105 280.74C413.909 281.796 415.911 282.324 418.111 282.324ZM459.501 288.264C456.421 288.264 453.561 287.802 450.921 286.878C448.325 285.91 446.301 284.7 444.849 283.248C444.189 282.544 443.903 281.752 443.991 280.872C444.123 279.948 444.563 279.2 445.311 278.628C446.191 277.924 447.049 277.638 447.885 277.77C448.765 277.858 449.513 278.232 450.129 278.892C450.877 279.728 452.065 280.52 453.693 281.268C455.365 281.972 457.213 282.324 459.237 282.324C461.789 282.324 463.725 281.906 465.045 281.07C466.409 280.234 467.113 279.156 467.157 277.836C467.201 276.516 466.563 275.372 465.243 274.404C463.967 273.436 461.613 272.644 458.181 272.028C453.737 271.148 450.503 269.828 448.479 268.068C446.499 266.308 445.509 264.152 445.509 261.6C445.509 259.356 446.169 257.508 447.489 256.056C448.809 254.56 450.503 253.46 452.571 252.756C454.639 252.008 456.795 251.634 459.039 251.634C461.943 251.634 464.517 252.096 466.761 253.02C469.005 253.944 470.787 255.22 472.107 256.848C472.723 257.552 473.009 258.3 472.965 259.092C472.921 259.84 472.547 260.478 471.843 261.006C471.139 261.49 470.303 261.644 469.335 261.468C468.367 261.292 467.553 260.896 466.893 260.28C465.793 259.224 464.605 258.498 463.329 258.102C462.053 257.706 460.579 257.508 458.907 257.508C456.971 257.508 455.321 257.838 453.957 258.498C452.637 259.158 451.977 260.126 451.977 261.402C451.977 262.194 452.175 262.92 452.571 263.58C453.011 264.196 453.847 264.768 455.079 265.296C456.311 265.78 458.115 266.264 460.491 266.748C463.791 267.408 466.387 268.244 468.279 269.256C470.215 270.268 471.601 271.456 472.437 272.82C473.273 274.14 473.691 275.68 473.691 277.44C473.691 279.464 473.141 281.29 472.041 282.918C470.985 284.546 469.401 285.844 467.289 286.812C465.221 287.78 462.625 288.264 459.501 288.264ZM495.337 288C493.137 288 491.157 287.45 489.397 286.35C487.637 285.206 486.251 283.666 485.239 281.73C484.227 279.794 483.721 277.616 483.721 275.196V243.714C483.721 242.746 484.029 241.954 484.645 241.338C485.261 240.722 486.053 240.414 487.021 240.414C487.989 240.414 488.781 240.722 489.397 241.338C490.013 241.954 490.321 242.746 490.321 243.714V275.196C490.321 276.956 490.805 278.43 491.773 279.618C492.741 280.806 493.929 281.4 495.337 281.4H497.581C498.373 281.4 499.033 281.708 499.561 282.324C500.133 282.94 500.419 283.732 500.419 284.7C500.419 285.668 500.045 286.46 499.297 287.076C498.593 287.692 497.669 288 496.525 288H495.337ZM480.685 258.894C479.761 258.894 479.013 258.63 478.441 258.102C477.869 257.574 477.583 256.914 477.583 256.122C477.583 255.242 477.869 254.538 478.441 254.01C479.013 253.482 479.761 253.218 480.685 253.218H495.931C496.855 253.218 497.603 253.482 498.175 254.01C498.747 254.538 499.033 255.242 499.033 256.122C499.033 256.914 498.747 257.574 498.175 258.102C497.603 258.63 496.855 258.894 495.931 258.894H480.685ZM525.061 288.264C521.497 288.264 518.351 287.494 515.623 285.954C512.895 284.37 510.739 282.214 509.155 279.486C507.615 276.714 506.845 273.546 506.845 269.982C506.845 266.374 507.615 263.206 509.155 260.478C510.739 257.706 512.895 255.55 515.623 254.01C518.351 252.426 521.497 251.634 525.061 251.634C528.581 251.634 531.705 252.426 534.433 254.01C537.161 255.55 539.295 257.706 540.835 260.478C542.419 263.206 543.211 266.374 543.211 269.982C543.211 273.546 542.441 276.714 540.901 279.486C539.361 282.214 537.227 284.37 534.499 285.954C531.771 287.494 528.625 288.264 525.061 288.264ZM525.061 282.324C527.349 282.324 529.373 281.796 531.133 280.74C532.893 279.684 534.257 278.232 535.225 276.384C536.237 274.536 536.743 272.402 536.743 269.982C536.743 267.562 536.237 265.428 535.225 263.58C534.257 261.688 532.893 260.214 531.133 259.158C529.373 258.102 527.349 257.574 525.061 257.574C522.773 257.574 520.749 258.102 518.989 259.158C517.229 260.214 515.843 261.688 514.831 263.58C513.819 265.428 513.313 267.562 513.313 269.982C513.313 272.402 513.819 274.536 514.831 276.384C515.843 278.232 517.229 279.684 518.989 280.74C520.749 281.796 522.773 282.324 525.061 282.324ZM569.598 288.264C566.078 288.264 562.932 287.472 560.16 285.888C557.432 284.26 555.276 282.082 553.692 279.354C552.152 276.582 551.382 273.458 551.382 269.982C551.382 266.418 552.152 263.25 553.692 260.478C555.232 257.706 557.344 255.55 560.028 254.01C562.712 252.426 565.792 251.634 569.268 251.634C571.864 251.634 574.24 252.14 576.396 253.152C578.552 254.12 580.488 255.594 582.204 257.574C582.82 258.278 583.04 259.004 582.864 259.752C582.688 260.5 582.204 261.16 581.412 261.732C580.796 262.172 580.114 262.326 579.366 262.194C578.618 262.018 577.936 261.622 577.32 261.006C575.164 258.718 572.48 257.574 569.268 257.574C567.024 257.574 565.044 258.102 563.328 259.158C561.612 260.17 560.27 261.6 559.302 263.448C558.334 265.296 557.85 267.474 557.85 269.982C557.85 272.358 558.334 274.47 559.302 276.318C560.314 278.166 561.7 279.64 563.46 280.74C565.22 281.796 567.266 282.324 569.598 282.324C571.138 282.324 572.48 282.148 573.624 281.796C574.812 281.4 575.89 280.806 576.858 280.014C577.562 279.442 578.288 279.134 579.036 279.09C579.784 279.002 580.444 279.2 581.016 279.684C581.764 280.3 582.182 281.004 582.27 281.796C582.358 282.544 582.094 283.226 581.478 283.842C578.31 286.79 574.35 288.264 569.598 288.264ZM599.205 274.8L595.113 270.312L615.375 252.228C616.035 251.612 616.761 251.326 617.553 251.37C618.389 251.414 619.093 251.766 619.665 252.426C620.281 253.086 620.567 253.812 620.523 254.604C620.479 255.396 620.127 256.1 619.467 256.716L599.205 274.8ZM596.103 288C595.135 288 594.343 287.714 593.727 287.142C593.155 286.526 592.869 285.734 592.869 284.766V239.688C592.869 238.72 593.155 237.95 593.727 237.378C594.343 236.762 595.135 236.454 596.103 236.454C597.071 236.454 597.841 236.762 598.413 237.378C599.029 237.95 599.337 238.72 599.337 239.688V284.766C599.337 285.734 599.029 286.526 598.413 287.142C597.841 287.714 597.071 288 596.103 288ZM619.665 287.67C618.961 288.242 618.169 288.484 617.289 288.396C616.453 288.352 615.749 287.978 615.177 287.274L601.779 270.708L606.399 266.352L620.127 283.248C620.699 283.952 620.941 284.722 620.853 285.558C620.809 286.35 620.413 287.054 619.665 287.67ZM643.579 288.264C640.499 288.264 637.639 287.802 634.999 286.878C632.403 285.91 630.379 284.7 628.927 283.248C628.267 282.544 627.981 281.752 628.069 280.872C628.201 279.948 628.641 279.2 629.389 278.628C630.269 277.924 631.127 277.638 631.963 277.77C632.843 277.858 633.591 278.232 634.207 278.892C634.955 279.728 636.143 280.52 637.771 281.268C639.443 281.972 641.291 282.324 643.315 282.324C645.867 282.324 647.803 281.906 649.123 281.07C650.487 280.234 651.191 279.156 651.235 277.836C651.279 276.516 650.641 275.372 649.321 274.404C648.045 273.436 645.691 272.644 642.259 272.028C637.815 271.148 634.581 269.828 632.557 268.068C630.577 266.308 629.587 264.152 629.587 261.6C629.587 259.356 630.247 257.508 631.567 256.056C632.887 254.56 634.581 253.46 636.649 252.756C638.717 252.008 640.873 251.634 643.117 251.634C646.021 251.634 648.595 252.096 650.839 253.02C653.083 253.944 654.865 255.22 656.185 256.848C656.801 257.552 657.087 258.3 657.043 259.092C656.999 259.84 656.625 260.478 655.921 261.006C655.217 261.49 654.381 261.644 653.413 261.468C652.445 261.292 651.631 260.896 650.971 260.28C649.871 259.224 648.683 258.498 647.407 258.102C646.131 257.706 644.657 257.508 642.985 257.508C641.049 257.508 639.399 257.838 638.035 258.498C636.715 259.158 636.055 260.126 636.055 261.402C636.055 262.194 636.253 262.92 636.649 263.58C637.089 264.196 637.925 264.768 639.157 265.296C640.389 265.78 642.193 266.264 644.569 266.748C647.869 267.408 650.465 268.244 652.357 269.256C654.293 270.268 655.679 271.456 656.515 272.82C657.351 274.14 657.769 275.68 657.769 277.44C657.769 279.464 657.219 281.29 656.119 282.918C655.063 284.546 653.479 285.844 651.367 286.812C649.299 287.78 646.703 288.264 643.579 288.264Z" fill="#005F40"/>
</svg>
