<svg width="525" height="212" viewBox="0 0 525 212" fill="none" xmlns="http://www.w3.org/2000/svg">
<rect width="525" height="212" fill="#005F40"/>
<rect x="40" y="47" width="444" height="117" rx="14" stroke="#D5D5D5" stroke-width="8"/>
<path d="M84.7332 126.264C81.6532 126.264 78.7932 125.802 76.1532 124.878C73.5572 123.91 71.5332 122.7 70.0812 121.248C69.4212 120.544 69.1352 119.752 69.2232 118.872C69.3552 117.948 69.7952 117.2 70.5432 116.628C71.4232 115.924 72.2812 115.638 73.1172 115.77C73.9972 115.858 74.7452 116.232 75.3612 116.892C76.1092 117.728 77.2972 118.52 78.9252 119.268C80.5972 119.972 82.4452 120.324 84.4692 120.324C87.0212 120.324 88.9572 119.906 90.2772 119.07C91.6412 118.234 92.3452 117.156 92.3892 115.836C92.4332 114.516 91.7952 113.372 90.4752 112.404C89.1992 111.436 86.8452 110.644 83.4132 110.028C78.9692 109.148 75.7352 107.828 73.7112 106.068C71.7312 104.308 70.7412 102.152 70.7412 99.6C70.7412 97.356 71.4012 95.508 72.7212 94.056C74.0412 92.56 75.7352 91.46 77.8032 90.756C79.8712 90.008 82.0272 89.634 84.2712 89.634C87.1752 89.634 89.7492 90.096 91.9932 91.02C94.2372 91.944 96.0192 93.22 97.3392 94.848C97.9552 95.552 98.2412 96.3 98.1972 97.092C98.1532 97.84 97.7792 98.478 97.0752 99.006C96.3712 99.49 95.5352 99.644 94.5672 99.468C93.5992 99.292 92.7852 98.896 92.1252 98.28C91.0252 97.224 89.8372 96.498 88.5612 96.102C87.2852 95.706 85.8112 95.508 84.1392 95.508C82.2032 95.508 80.5532 95.838 79.1892 96.498C77.8692 97.158 77.2092 98.126 77.2092 99.402C77.2092 100.194 77.4072 100.92 77.8032 101.58C78.2432 102.196 79.0792 102.768 80.3112 103.296C81.5432 103.78 83.3472 104.264 85.7232 104.748C89.0232 105.408 91.6192 106.244 93.5112 107.256C95.4472 108.268 96.8332 109.456 97.6692 110.82C98.5052 112.14 98.9232 113.68 98.9232 115.44C98.9232 117.464 98.3732 119.29 97.2732 120.918C96.2172 122.546 94.6332 123.844 92.5212 124.812C90.4532 125.78 87.8572 126.264 84.7332 126.264ZM137.927 126.066C136.959 126.066 136.145 125.758 135.485 125.142C134.869 124.482 134.561 123.668 134.561 122.7V106.464C134.561 103.956 134.099 101.91 133.175 100.326C132.251 98.742 130.997 97.576 129.413 96.828C127.873 96.036 126.091 95.64 124.067 95.64C122.219 95.64 120.547 96.014 119.051 96.762C117.555 97.51 116.367 98.522 115.487 99.798C114.607 101.03 114.167 102.46 114.167 104.088H110.009C110.009 101.316 110.669 98.852 111.989 96.696C113.353 94.496 115.201 92.758 117.533 91.482C119.865 90.206 122.483 89.568 125.387 89.568C128.423 89.568 131.129 90.228 133.505 91.548C135.925 92.824 137.817 94.716 139.181 97.224C140.589 99.732 141.293 102.812 141.293 106.464V122.7C141.293 123.668 140.963 124.482 140.303 125.142C139.687 125.758 138.895 126.066 137.927 126.066ZM110.801 126.066C109.833 126.066 109.019 125.758 108.359 125.142C107.743 124.482 107.435 123.668 107.435 122.7V93.264C107.435 92.252 107.743 91.438 108.359 90.822C109.019 90.206 109.833 89.898 110.801 89.898C111.813 89.898 112.627 90.206 113.243 90.822C113.859 91.438 114.167 92.252 114.167 93.264V122.7C114.167 123.668 113.859 124.482 113.243 125.142C112.627 125.758 111.813 126.066 110.801 126.066ZM167.471 126.264C164.259 126.264 161.377 125.472 158.825 123.888C156.273 122.26 154.249 120.082 152.753 117.354C151.301 114.582 150.575 111.458 150.575 107.982C150.575 104.506 151.367 101.382 152.951 98.61C154.579 95.838 156.757 93.66 159.485 92.076C162.257 90.448 165.359 89.634 168.791 89.634C172.223 89.634 175.303 90.448 178.031 92.076C180.759 93.66 182.915 95.838 184.499 98.61C186.127 101.382 186.941 104.506 186.941 107.982H184.367C184.367 111.458 183.619 114.582 182.123 117.354C180.671 120.082 178.669 122.26 176.117 123.888C173.565 125.472 170.683 126.264 167.471 126.264ZM168.791 120.324C171.035 120.324 173.037 119.796 174.797 118.74C176.557 117.64 177.943 116.166 178.955 114.318C179.967 112.426 180.473 110.314 180.473 107.982C180.473 105.606 179.967 103.494 178.955 101.646C177.943 99.754 176.557 98.28 174.797 97.224C173.037 96.124 171.035 95.574 168.791 95.574C166.591 95.574 164.589 96.124 162.785 97.224C161.025 98.28 159.617 99.754 158.561 101.646C157.549 103.494 157.043 105.606 157.043 107.982C157.043 110.314 157.549 112.426 158.561 114.318C159.617 116.166 161.025 117.64 162.785 118.74C164.589 119.796 166.591 120.324 168.791 120.324ZM183.575 126.066C182.607 126.066 181.793 125.758 181.133 125.142C180.517 124.482 180.209 123.668 180.209 122.7V112.602L181.463 105.606L186.941 107.982V122.7C186.941 123.668 186.611 124.482 185.951 125.142C185.335 125.758 184.543 126.066 183.575 126.066ZM200.327 141.444C199.359 141.444 198.545 141.114 197.885 140.454C197.269 139.838 196.961 139.046 196.961 138.078V107.982C197.005 104.506 197.819 101.382 199.403 98.61C200.987 95.838 203.143 93.66 205.871 92.076C208.599 90.448 211.679 89.634 215.111 89.634C218.587 89.634 221.689 90.448 224.417 92.076C227.145 93.66 229.301 95.838 230.885 98.61C232.513 101.382 233.327 104.506 233.327 107.982C233.327 111.458 232.579 114.582 231.083 117.354C229.631 120.082 227.629 122.26 225.077 123.888C222.525 125.472 219.643 126.264 216.431 126.264C213.835 126.264 211.437 125.736 209.237 124.68C207.081 123.58 205.233 122.106 203.693 120.258V138.078C203.693 139.046 203.385 139.838 202.769 140.454C202.153 141.114 201.339 141.444 200.327 141.444ZM215.111 120.324C217.355 120.324 219.357 119.796 221.117 118.74C222.877 117.64 224.263 116.166 225.275 114.318C226.331 112.426 226.859 110.314 226.859 107.982C226.859 105.606 226.331 103.494 225.275 101.646C224.263 99.754 222.877 98.28 221.117 97.224C219.357 96.124 217.355 95.574 215.111 95.574C212.911 95.574 210.909 96.124 209.105 97.224C207.345 98.28 205.959 99.754 204.947 101.646C203.935 103.494 203.429 105.606 203.429 107.982C203.429 110.314 203.935 112.426 204.947 114.318C205.959 116.166 207.345 117.64 209.105 118.74C210.909 119.796 212.911 120.324 215.111 120.324ZM256.501 126.264C253.421 126.264 250.561 125.802 247.921 124.878C245.325 123.91 243.301 122.7 241.849 121.248C241.189 120.544 240.903 119.752 240.991 118.872C241.123 117.948 241.563 117.2 242.311 116.628C243.191 115.924 244.049 115.638 244.885 115.77C245.765 115.858 246.513 116.232 247.129 116.892C247.877 117.728 249.065 118.52 250.693 119.268C252.365 119.972 254.213 120.324 256.237 120.324C258.789 120.324 260.725 119.906 262.045 119.07C263.409 118.234 264.113 117.156 264.157 115.836C264.201 114.516 263.563 113.372 262.243 112.404C260.967 111.436 258.613 110.644 255.181 110.028C250.737 109.148 247.503 107.828 245.479 106.068C243.499 104.308 242.509 102.152 242.509 99.6C242.509 97.356 243.169 95.508 244.489 94.056C245.809 92.56 247.503 91.46 249.571 90.756C251.639 90.008 253.795 89.634 256.039 89.634C258.943 89.634 261.517 90.096 263.761 91.02C266.005 91.944 267.787 93.22 269.107 94.848C269.723 95.552 270.009 96.3 269.965 97.092C269.921 97.84 269.547 98.478 268.843 99.006C268.139 99.49 267.303 99.644 266.335 99.468C265.367 99.292 264.553 98.896 263.893 98.28C262.793 97.224 261.605 96.498 260.329 96.102C259.053 95.706 257.579 95.508 255.907 95.508C253.971 95.508 252.321 95.838 250.957 96.498C249.637 97.158 248.977 98.126 248.977 99.402C248.977 100.194 249.175 100.92 249.571 101.58C250.011 102.196 250.847 102.768 252.079 103.296C253.311 103.78 255.115 104.264 257.491 104.748C260.791 105.408 263.387 106.244 265.279 107.256C267.215 108.268 268.601 109.456 269.437 110.82C270.273 112.14 270.691 113.68 270.691 115.44C270.691 117.464 270.141 119.29 269.041 120.918C267.985 122.546 266.401 123.844 264.289 124.812C262.221 125.78 259.625 126.264 256.501 126.264ZM292.337 126C290.137 126 288.157 125.45 286.397 124.35C284.637 123.206 283.251 121.666 282.239 119.73C281.227 117.794 280.721 115.616 280.721 113.196V81.714C280.721 80.746 281.029 79.954 281.645 79.338C282.261 78.722 283.053 78.414 284.021 78.414C284.989 78.414 285.781 78.722 286.397 79.338C287.013 79.954 287.321 80.746 287.321 81.714V113.196C287.321 114.956 287.805 116.43 288.773 117.618C289.741 118.806 290.929 119.4 292.337 119.4H294.581C295.373 119.4 296.033 119.708 296.561 120.324C297.133 120.94 297.419 121.732 297.419 122.7C297.419 123.668 297.045 124.46 296.297 125.076C295.593 125.692 294.669 126 293.525 126H292.337ZM277.685 96.894C276.761 96.894 276.013 96.63 275.441 96.102C274.869 95.574 274.583 94.914 274.583 94.122C274.583 93.242 274.869 92.538 275.441 92.01C276.013 91.482 276.761 91.218 277.685 91.218H292.931C293.855 91.218 294.603 91.482 295.175 92.01C295.747 92.538 296.033 93.242 296.033 94.122C296.033 94.914 295.747 95.574 295.175 96.102C294.603 96.63 293.855 96.894 292.931 96.894H277.685ZM322.061 126.264C318.497 126.264 315.351 125.494 312.623 123.954C309.895 122.37 307.739 120.214 306.155 117.486C304.615 114.714 303.845 111.546 303.845 107.982C303.845 104.374 304.615 101.206 306.155 98.478C307.739 95.706 309.895 93.55 312.623 92.01C315.351 90.426 318.497 89.634 322.061 89.634C325.581 89.634 328.705 90.426 331.433 92.01C334.161 93.55 336.295 95.706 337.835 98.478C339.419 101.206 340.211 104.374 340.211 107.982C340.211 111.546 339.441 114.714 337.901 117.486C336.361 120.214 334.227 122.37 331.499 123.954C328.771 125.494 325.625 126.264 322.061 126.264ZM322.061 120.324C324.349 120.324 326.373 119.796 328.133 118.74C329.893 117.684 331.257 116.232 332.225 114.384C333.237 112.536 333.743 110.402 333.743 107.982C333.743 105.562 333.237 103.428 332.225 101.58C331.257 99.688 329.893 98.214 328.133 97.158C326.373 96.102 324.349 95.574 322.061 95.574C319.773 95.574 317.749 96.102 315.989 97.158C314.229 98.214 312.843 99.688 311.831 101.58C310.819 103.428 310.313 105.562 310.313 107.982C310.313 110.402 310.819 112.536 311.831 114.384C312.843 116.232 314.229 117.684 315.989 118.74C317.749 119.796 319.773 120.324 322.061 120.324ZM366.598 126.264C363.078 126.264 359.932 125.472 357.16 123.888C354.432 122.26 352.276 120.082 350.692 117.354C349.152 114.582 348.382 111.458 348.382 107.982C348.382 104.418 349.152 101.25 350.692 98.478C352.232 95.706 354.344 93.55 357.028 92.01C359.712 90.426 362.792 89.634 366.268 89.634C368.864 89.634 371.24 90.14 373.396 91.152C375.552 92.12 377.488 93.594 379.204 95.574C379.82 96.278 380.04 97.004 379.864 97.752C379.688 98.5 379.204 99.16 378.412 99.732C377.796 100.172 377.114 100.326 376.366 100.194C375.618 100.018 374.936 99.622 374.32 99.006C372.164 96.718 369.48 95.574 366.268 95.574C364.024 95.574 362.044 96.102 360.328 97.158C358.612 98.17 357.27 99.6 356.302 101.448C355.334 103.296 354.85 105.474 354.85 107.982C354.85 110.358 355.334 112.47 356.302 114.318C357.314 116.166 358.7 117.64 360.46 118.74C362.22 119.796 364.266 120.324 366.598 120.324C368.138 120.324 369.48 120.148 370.624 119.796C371.812 119.4 372.89 118.806 373.858 118.014C374.562 117.442 375.288 117.134 376.036 117.09C376.784 117.002 377.444 117.2 378.016 117.684C378.764 118.3 379.182 119.004 379.27 119.796C379.358 120.544 379.094 121.226 378.478 121.842C375.31 124.79 371.35 126.264 366.598 126.264ZM396.205 112.8L392.113 108.312L412.375 90.228C413.035 89.612 413.761 89.326 414.553 89.37C415.389 89.414 416.093 89.766 416.665 90.426C417.281 91.086 417.567 91.812 417.523 92.604C417.479 93.396 417.127 94.1 416.467 94.716L396.205 112.8ZM393.103 126C392.135 126 391.343 125.714 390.727 125.142C390.155 124.526 389.869 123.734 389.869 122.766V77.688C389.869 76.72 390.155 75.95 390.727 75.378C391.343 74.762 392.135 74.454 393.103 74.454C394.071 74.454 394.841 74.762 395.413 75.378C396.029 75.95 396.337 76.72 396.337 77.688V122.766C396.337 123.734 396.029 124.526 395.413 125.142C394.841 125.714 394.071 126 393.103 126ZM416.665 125.67C415.961 126.242 415.169 126.484 414.289 126.396C413.453 126.352 412.749 125.978 412.177 125.274L398.779 108.708L403.399 104.352L417.127 121.248C417.699 121.952 417.941 122.722 417.853 123.558C417.809 124.35 417.413 125.054 416.665 125.67ZM440.579 126.264C437.499 126.264 434.639 125.802 431.999 124.878C429.403 123.91 427.379 122.7 425.927 121.248C425.267 120.544 424.981 119.752 425.069 118.872C425.201 117.948 425.641 117.2 426.389 116.628C427.269 115.924 428.127 115.638 428.963 115.77C429.843 115.858 430.591 116.232 431.207 116.892C431.955 117.728 433.143 118.52 434.771 119.268C436.443 119.972 438.291 120.324 440.315 120.324C442.867 120.324 444.803 119.906 446.123 119.07C447.487 118.234 448.191 117.156 448.235 115.836C448.279 114.516 447.641 113.372 446.321 112.404C445.045 111.436 442.691 110.644 439.259 110.028C434.815 109.148 431.581 107.828 429.557 106.068C427.577 104.308 426.587 102.152 426.587 99.6C426.587 97.356 427.247 95.508 428.567 94.056C429.887 92.56 431.581 91.46 433.649 90.756C435.717 90.008 437.873 89.634 440.117 89.634C443.021 89.634 445.595 90.096 447.839 91.02C450.083 91.944 451.865 93.22 453.185 94.848C453.801 95.552 454.087 96.3 454.043 97.092C453.999 97.84 453.625 98.478 452.921 99.006C452.217 99.49 451.381 99.644 450.413 99.468C449.445 99.292 448.631 98.896 447.971 98.28C446.871 97.224 445.683 96.498 444.407 96.102C443.131 95.706 441.657 95.508 439.985 95.508C438.049 95.508 436.399 95.838 435.035 96.498C433.715 97.158 433.055 98.126 433.055 99.402C433.055 100.194 433.253 100.92 433.649 101.58C434.089 102.196 434.925 102.768 436.157 103.296C437.389 103.78 439.193 104.264 441.569 104.748C444.869 105.408 447.465 106.244 449.357 107.256C451.293 108.268 452.679 109.456 453.515 110.82C454.351 112.14 454.769 113.68 454.769 115.44C454.769 117.464 454.219 119.29 453.119 120.918C452.063 122.546 450.479 123.844 448.367 124.812C446.299 125.78 443.703 126.264 440.579 126.264Z" fill="#D5D5D5"/>
</svg>
